<?xml version="1.0" standalone="no"?>
<!DOCTYPE svg PUBLIC "-//W3C//DTD SVG 20010904//EN"
 "http://www.w3.org/TR/2001/REC-SVG-20010904/DTD/svg10.dtd">
<svg version="1.0" xmlns="http://www.w3.org/2000/svg"
 width="512.000000pt" height="512.000000pt" viewBox="0 0 512.000000 512.000000"
 preserveAspectRatio="xMidYMid meet">
<metadata>
Created by potrace 1.14, written by Peter Selinger 2001-2017
</metadata>
<g transform="translate(0.000000,512.000000) scale(0.100000,-0.100000)"
fill="#000000" stroke="none">
<path d="M2415 5108 c-272 -46 -515 -236 -630 -491 -29 -65 -44 -87 -55 -83
-8 3 -54 19 -101 36 -160 55 -328 63 -493 20 -292 -74 -522 -304 -607 -606
-19 -64 -23 -105 -23 -214 0 -146 13 -212 61 -329 18 -45 23 -66 15 -69 -6 -2
-51 -23 -99 -46 -183 -90 -323 -233 -408 -420 -50 -110 -68 -195 -69 -326 -1
-134 5 -179 34 -275 71 -228 235 -414 456 -516 49 -23 91 -43 93 -45 2 -2 -6
-27 -19 -56 -47 -110 -60 -172 -65 -308 -8 -243 79 -463 248 -630 162 -162
354 -242 582 -244 146 -1 191 6 298 45 45 16 89 32 97 35 11 3 24 -16 48 -69
94 -211 262 -374 468 -455 110 -42 164 -54 279 -58 348 -13 648 168 806 486
16 32 29 66 29 75 0 25 25 28 67 7 106 -54 334 -84 474 -61 279 45 520 229
642 490 51 108 71 211 71 354 0 138 -13 211 -60 326 -25 61 -24 79 2 79 24 0
155 69 214 113 180 134 296 320 334 536 51 285 -39 562 -248 765 -78 75 -128
109 -234 158 -48 23 -89 42 -91 44 -2 2 7 27 19 56 13 29 33 94 46 143 29 118
27 302 -5 412 -87 301 -306 519 -604 604 -84 24 -273 33 -357 18 -68 -12 -176
-45 -212 -65 -14 -8 -30 -14 -35 -14 -5 0 -26 39 -48 86 -117 261 -362 450
-640 493 -72 11 -211 10 -280 -1z m271 -173 c245 -50 445 -225 519 -454 l17
-54 -331 -331 -331 -331 -330 330 c-368 367 -340 326 -296 435 59 149 193 287
346 356 127 58 273 76 406 49z m-1161 -510 c33 -8 88 -29 121 -45 l61 -29 -1
-468 -1 -468 -468 -1 -468 -1 -28 61 c-50 107 -65 176 -64 301 0 101 8 143 40
230 82 220 267 379 499 428 84 18 226 15 309 -8z m2385 10 c63 -12 164 -55
226 -96 150 -98 268 -272 300 -444 24 -129 -1 -310 -59 -430 l-25 -50 -469 -1
-469 0 0 469 1 469 39 20 c54 28 138 56 189 63 23 4 43 8 45 10 6 5 184 -3
222 -10z m-1585 -905 l-116 -116 -164 0 -165 -1 -1 26 c-1 34 -1 754 0 761 1
3 127 -121 281 -275 l280 -280 -115 -115z m919 278 c0 -206 -4 -379 -7 -385
-4 -6 -69 -10 -166 -9 l-161 1 -115 115 -115 115 277 277 c152 153 280 273
283 269 3 -5 5 -178 4 -383z m-626 -341 l53 -53 -111 -1 -111 0 53 54 c29 29
55 53 58 53 3 0 29 -24 58 -53z m-912 -388 l1 -164 -115 -118 -116 -117 -278
277 c-152 152 -273 280 -269 283 5 3 182 5 393 4 l383 -1 1 -164z m319 162 c9
-1 -134 -151 -145 -151 -7 0 -4 135 3 146 4 7 89 10 142 5z m1017 -198 l201
-201 1 -279 2 -278 -202 -204 -202 -204 -282 0 -282 0 -200 200 -201 201 -1
279 -1 278 202 205 202 205 282 -1 281 -1 200 -200z m196 189 c4 -5 6 -30 5
-54 0 -23 -2 -54 -2 -68 -1 -22 -9 -17 -76 50 -41 41 -75 77 -75 80 0 10 142
3 148 -8z m957 7 c2 -3 -121 -130 -273 -282 l-277 -277 -115 115 -115 115 -1
163 0 162 25 5 c31 6 749 5 756 -1z m-3170 -349 l330 -330 -331 -331 -331
-331 -54 17 c-174 57 -325 192 -404 362 -167 358 15 789 390 924 28 9 55 18
60 18 6 1 159 -148 340 -329z m3491 301 c217 -85 370 -270 418 -503 21 -102
20 -175 -4 -275 -57 -238 -224 -423 -449 -498 l-54 -17 -331 331 -331 331 330
330 c181 181 334 330 340 330 5 -1 42 -13 81 -29z m-2809 -632 l-1 -110 -55
55 -56 56 55 55 c30 30 55 55 56 55 0 0 1 -50 1 -111z m1768 51 l50 -50 -56
-55 -55 -56 0 106 c0 58 2 105 6 105 3 0 28 -23 55 -50z m-1768 -565 c0 -161
-1 -165 -21 -166 -27 -1 -759 -1 -766 0 -3 1 121 127 275 281 l280 280 115
-115 116 -116 1 -164z m2488 -164 c-2 -5 -685 -6 -766 -2 -14 1 -16 22 -15
166 l1 165 115 115 115 115 277 -277 c152 -152 275 -279 273 -282z m-2169 2
c-7 -7 -127 -9 -137 -2 -9 5 -14 73 -10 139 1 8 34 -18 76 -60 41 -41 73 -75
71 -77z m1218 67 c1 -40 -3 -70 -9 -71 -14 -1 -117 -1 -135 0 -8 1 17 33 60
76 41 41 76 72 78 70 3 -3 5 -36 6 -75z m-1538 -711 l1 -468 -61 -30 c-54 -26
-101 -42 -171 -58 -52 -11 -196 -10 -247 2 -152 35 -243 83 -346 180 -212 200
-267 516 -137 791 l24 51 468 0 469 -1 0 -467z m619 351 l115 -115 -277 -277
c-152 -153 -280 -273 -283 -269 -4 7 -5 685 -1 762 1 14 22 16 166 15 l165 -1
115 -115z m291 61 l-56 -56 -55 56 -56 55 111 1 112 0 -56 -56z m625 25 c4
-132 3 -756 -1 -756 -3 0 -130 125 -282 277 l-278 278 115 115 116 116 164 0
165 0 1 -30z m1130 -11 c46 -84 69 -178 74 -287 14 -375 -281 -694 -650 -701
-142 -3 -215 12 -331 68 l-51 25 2 468 c1 257 3 467 4 467 0 1 210 1 466 0
l465 0 21 -40z m-1477 -644 l328 -329 -17 -53 c-102 -316 -445 -519 -765 -455
-251 51 -450 223 -525 455 l-17 53 328 329 c181 181 331 329 334 329 3 0 153
-148 334 -329z"/>
</g>
</svg>
